<svg width="94" height="35" viewBox="0 0 94 35" fill="none" xmlns="http://www.w3.org/2000/svg">
<path fill-rule="evenodd" clip-rule="evenodd" d="M13.7165 0.180489C11.1153 0.615895 7.89907 2.37283 6.22887 4.27072C3.42678 7.45508 1.54409 11.5652 0.421744 16.9495C0.0928097 18.5282 0.0151218 19.5356 0.00226563 22.3921C-0.0118762 25.532 0.0305492 26.0504 0.409439 27.3651C1.60323 31.5072 4.23947 34.2196 7.70017 34.867C9.08827 35.1266 12.465 34.9604 13.9446 34.5596C18.2171 33.4025 20.9881 30.3011 23.1221 24.2885L23.7294 22.5766L24.7686 22.4814C25.4037 22.4233 25.8735 22.2799 25.977 22.1124C26.0703 21.9618 26.2865 21.2159 26.4575 20.4549C26.6285 19.6939 26.9099 18.4485 27.0827 17.6875C27.5815 15.4927 28.0908 15.658 20.8296 15.658H14.5959L14.3382 16.0732C14.1964 16.3016 13.8107 17.7107 13.481 19.2049C12.7629 22.4602 12.7706 22.4843 14.5305 22.4843C15.8895 22.4843 15.8824 22.4565 15.006 24.3086C14.0654 26.2962 12.3493 27.4134 10.5094 27.2358C9.68277 27.1561 9.4644 27.0469 8.96026 26.4611C8.1663 25.5384 7.88934 24.2988 7.9066 21.7463C7.92919 18.3869 8.70148 15.1249 10.1996 12.0604C11.6531 9.08693 12.9806 7.81706 14.635 7.81706C15.918 7.81706 16.4859 8.48013 16.79 10.3341C16.9125 11.0806 17.0429 11.7953 17.0798 11.922C17.1309 12.0969 18.0734 12.1527 20.9872 12.1527C24.1952 12.1527 24.8654 12.1065 25.0586 11.8728C25.5789 11.2431 24.8843 6.82301 23.959 4.87549C22.2109 1.19613 18.3153 -0.589588 13.7165 0.180489ZM35.1597 0.358709C31.1742 1.46364 28.3082 4.43436 27.6079 8.18605C27.3293 9.67971 27.5113 12.3497 27.9846 13.7096C28.7591 15.9352 29.6706 17.2665 32.4757 20.2702C34.8526 22.8155 35.3995 23.7108 35.4946 25.2122C35.5944 26.7849 35.2208 27.561 34.2188 27.8625C33.6814 28.0243 33.3945 28.0182 32.9559 27.8358C32.2196 27.5293 32.027 27.1373 31.8802 25.6469L31.7596 24.4215L27.8612 24.3717L23.9629 24.3219L23.8413 24.8089C23.6409 25.6102 23.9294 28.3136 24.3463 29.5443C25.1638 31.9573 27.0399 33.8556 29.3285 34.586C30.766 35.0447 34.7156 35.1471 36.3303 34.7674C38.8328 34.179 41.2713 32.4815 42.4047 30.5388C44.0001 27.804 44.3331 23.5191 43.174 20.6366C42.3922 18.6922 41.5547 17.5093 39.1978 15.0195C36.4282 12.0938 35.81 11.0732 35.8041 9.41625C35.8004 8.32774 35.841 8.21132 36.3999 7.70968C37.1957 6.99532 38.442 6.94883 39.0991 7.60895C39.5256 8.03735 39.9265 9.11184 39.9342 9.84649C39.9427 10.669 40.0362 10.6872 43.9861 10.6345L47.7379 10.5845L47.7293 8.73787C47.7176 6.24702 47.1932 4.57864 45.9506 3.0787C44.8826 1.78946 44.0427 1.20148 42.3712 0.572723C40.5985 -0.094038 37.1606 -0.196064 35.1597 0.358709ZM57.0765 0.670689C56.96 0.745224 56.6612 1.26291 56.4124 1.82101C56.1635 2.3791 55.7514 3.29235 55.4968 3.85044C54.6254 5.76032 52.6338 10.2144 51.5369 12.7061C50.9342 14.076 49.4748 17.3554 48.2942 19.9937C42.4069 33.1495 42.0665 33.955 42.2618 34.2661C42.4261 34.5283 42.9692 34.5753 46.3238 34.6185C49.273 34.6563 50.246 34.6124 50.405 34.434C50.52 34.305 50.961 33.3695 51.3851 32.3547L52.1559 30.5098L55.9865 30.4598L59.817 30.41L59.7278 32.2728C59.658 33.7296 59.6955 34.193 59.8999 34.3984C60.249 34.7491 67.4665 34.7866 67.8119 34.4395C68.1313 34.1187 68.1313 1.07178 67.8119 0.750943C67.5645 0.50243 57.4572 0.426972 57.0765 0.670689ZM76.6212 0.742641C76.3921 0.921047 75.9117 2.7278 74.9113 7.17133C73.478 13.538 71.7823 21.0176 71.147 23.7758C68.9649 33.2482 68.776 34.1729 68.9741 34.4126C69.1334 34.6054 69.9844 34.6604 72.784 34.6581C74.7667 34.6565 76.4898 34.5908 76.6133 34.512C76.7367 34.4333 77.0428 33.4174 77.2937 32.2547C77.8271 29.7823 77.9119 29.9766 75.8132 28.8628C75.0347 28.4496 74.3667 28.0173 74.3291 27.9025C74.2802 27.7535 75.3027 27.6699 77.8959 27.611C81.4158 27.5312 81.588 27.5094 83.3163 26.9221C87.3608 25.5484 90.362 22.9989 92.1382 19.4287C93.5518 16.5866 94.0062 14.5636 93.9999 11.1379C93.9961 9.01867 93.9235 8.32036 93.5957 7.24808C92.6047 4.0056 90.4281 2.02284 86.7939 1.05241C84.9679 0.564974 77.1549 0.326792 76.6212 0.742641ZM84.4649 8.17203C85.5015 8.60706 85.9235 9.66145 85.911 11.7837C85.8868 15.8649 83.9367 19.3356 81.3396 19.9193C80.7871 20.0435 80.2819 20.0914 80.2165 20.0258C80.1057 19.9147 80.6106 17.42 81.712 12.636C81.9662 11.532 82.1741 10.5223 82.1741 10.3919C82.1741 10.2616 81.3866 9.7286 80.4242 9.2074C79.4618 8.68621 78.7228 8.18088 78.7821 8.08458C78.9606 7.79437 83.7403 7.86798 84.4649 8.17203ZM60.393 16.1337C60.2328 19.6772 60.0707 22.6804 60.0323 22.8072C59.9344 23.1321 55.3598 23.1387 55.3598 22.814C55.3598 22.5087 60.5282 9.53433 60.615 9.62141C60.6531 9.6596 60.5532 12.5903 60.393 16.1337Z" fill="white"/>
</svg>
